<?xml version="1.0" encoding="UTF-8"?>
<svg id="Alt._Rev" data-name="Alt. Rev" xmlns="http://www.w3.org/2000/svg" viewBox="0 0 1280 1280">
  <defs>
    <style>
      .cls-1 {
        fill: #fafdff;
      }

      .cls-1, .cls-2 {
        stroke-width: 0px;
      }

      .cls-2 {
        fill: #3a638d;
      }
    </style>
  </defs>
  <rect class="cls-1" width="1280" height="1280" rx="300" ry="300"/>
  <g>
    <path class="cls-2" d="M999.2,327.47l22.51,28.28-137.96,596.99h-116.46l144.5-625.27h87.4M1016.56,291.47h-118.25c-8.86,0-16.55,6.11-18.55,14.74l-152.35,659.24c-2.75,11.92,6.31,23.29,18.55,23.29h151.28c8.86,0,16.55-6.11,18.55-14.74l144.91-627.08-44.14-55.46h0Z"/>
    <path class="cls-2" d="M491.57,327.47l22.53,28.29-20.76,89.88h-116.46l27.3-118.17h87.38M508.93,291.47h-118.22c-8.86,0-16.55,6.11-18.55,14.74l-35.15,152.13c-2.75,11.92,6.31,23.29,18.55,23.29h151.28c8.86,0,16.56-6.11,18.55-14.74l27.71-119.97-44.16-55.46h0Z"/>
    <path class="cls-2" d="M374.39,834.58l22.53,28.3-20.77,89.86h-116.46l27.3-118.17h87.4M391.74,798.58h-118.25c-8.86,0-16.55,6.11-18.55,14.74l-35.15,152.13c-2.75,11.92,6.31,23.29,18.55,23.29h151.29c8.86,0,16.55-6.11,18.55-14.74l27.73-119.95-44.16-55.48h0Z"/>
    <path class="cls-2" d="M432.99,581.04l22.53,28.29-20.77,89.86h-116.46l27.3-118.14h87.41M450.35,545.04h-118.25c-8.86,0-16.55,6.11-18.55,14.74l-35.15,152.11c-2.75,11.92,6.31,23.29,18.55,23.29h151.29c8.86,0,16.55-6.11,18.55-14.74l27.73-119.95-44.16-55.46h0Z"/>
    <path class="cls-2" d="M621.97,566.19c-24.11,15.4-39.48,41.83-40.38,71.16v.09s0,.09,0,.09l-.04,2.19v.18s0,.18,0,.18c0,4.06-3.31,7.36-7.38,7.36-.72,0-1.43-.1-2.12-.31-2.88-.87-4.95-3.41-5.22-6.4,0-.97.04-3.22.06-3.75.41-10.79,3.01-21.14,7.71-30.71,1.94-3.93,4.24-7.74,6.85-11.33,7.02-9.68,16.31-17.71,26.89-23.22,4.41-2.3,8.97-4.15,13.65-5.54M643.97,545.04c-31.74,0-59.83,15.52-77.11,39.36-3.18,4.38-6,9.03-8.42,13.93-5.66,11.54-9.04,24.42-9.56,38.04-.02.65-.09,4.61-.07,5.03.56,10.89,7.99,19.97,18.04,22.99,2.31.69,4.77,1.07,7.3,1.07,14.01,0,25.38-11.36,25.38-25.36l.04-2.19c.87-28.62,19.03-52.91,44.39-62.79,7.86-3.06,16.41-4.74,25.36-4.74,4.88,0,9.62.56,14.23,1.45,5.05.98,10.39,1.68,14.57,1.68,8.34,0,12.05-2.8-.35-11.83-7.9-5.75-17.01-9.84-26.59-12.69-8.62-2.57-17.76-3.94-27.22-3.94h0Z"/>
    <path class="cls-2" d="M713.81,630.15c.72,0,1.43.1,2.12.31,2.88.87,4.95,3.41,5.22,6.4,0,.97-.04,3.22-.06,3.75-.41,10.79-3.01,21.14-7.71,30.7-1.94,3.93-4.24,7.74-6.85,11.33-7.02,9.68-16.31,17.71-26.89,23.22-4.41,2.3-8.97,4.15-13.65,5.54,24.11-15.4,39.48-41.83,40.38-71.16v-.09s0-.09,0-.09l.04-2.19v-.18s0-.18,0-.18c0-4.06,3.31-7.36,7.38-7.36M588.86,722.15h0,0M713.81,612.15c-14.01,0-25.38,11.36-25.38,25.36l-.04,2.19c-.87,28.62-19.03,52.91-44.39,62.79-7.86,3.06-16.41,4.74-25.36,4.74-4.88,0-9.62-.56-14.23-1.45-5.05-.98-10.39-1.68-14.57-1.68-8.34,0-12.05,2.8.35,11.83,7.9,5.75,17.01,9.84,26.59,12.69,8.62,2.57,17.76,3.94,27.22,3.94,31.74,0,59.83-15.52,77.11-39.36,3.18-4.38,6-9.03,8.42-13.93,5.66-11.54,9.04-24.42,9.56-38.04.02-.65.09-4.61.07-5.03-.56-10.89-7.99-19.97-18.04-22.99-2.31-.69-4.77-1.07-7.3-1.07h0Z"/>
  </g>
</svg>