<?xml version="1.0" encoding="UTF-8"?>
<svg id="Layer_1" data-name="Layer 1" xmlns="http://www.w3.org/2000/svg" xmlns:xlink="http://www.w3.org/1999/xlink" viewBox="0 0 16 16">
  <defs>
    <style>
      .cls-1 {
        fill: url(#linear-gradient-2);
      }

      .cls-2 {
        fill: url(#linear-gradient-3);
      }

      .cls-3 {
        fill: #221608;
      }

      .cls-4 {
        fill: url(#linear-gradient);
      }
    </style>
    <linearGradient id="linear-gradient" x1="15.36" y1="19.52" x2="1.92" y2="6.73" gradientUnits="userSpaceOnUse">
      <stop offset="0" stop-color="#591a1a"/>
      <stop offset="1" stop-color="#ed5633"/>
    </linearGradient>
    <linearGradient id="linear-gradient-2" x1="17.6" y1="17.01" x2="4.07" y2="4.12" xlink:href="#linear-gradient"/>
    <linearGradient id="linear-gradient-3" x1="19.23" y1="15.35" x2="5.49" y2="2.27" xlink:href="#linear-gradient"/>
  </defs>
  <rect class="cls-3" width="16" height="16" rx="3.2" ry="3.2"/>
  <g>
    <path class="cls-4" d="M3,11.82v1.44c0,.36.6.72,1,.72h3.9c2.01,0,3.59-1.21,4.57-2.68.09-.13-.02-.3-.18-.3H3.81c-.4,0-.81.45-.81.82ZM4.5,13.55h0c-.6,0-1.08-.48-1.08-1.07h0c0-.59.48-1.07,1.08-1.07h0c.6,0,1.08.48,1.08,1.07h0c0,.59-.48,1.07-1.08,1.07Z"/>
    <path class="cls-1" d="M12.57,6.5H3.88c-.4,0-.88.55-.88.92v1.36c0,.37.48.67.88.67h8.69c.35,0,.65-.24.71-.56.05-.27.07-.39.07-.68s-.02-.62-.07-.89c-.06-.32-.36-.81-.71-.81ZM4.49,9.03h0c-.57,0-1.03-.46-1.03-1.03h0c0-.57.46-1.03,1.03-1.03h0c.57,0,1.03.46,1.03,1.03h0c0,.57-.46,1.03-1.03,1.03Z"/>
    <path class="cls-2" d="M3.02,4.29v-1.58c0-.4.54-.67.93-.67h3.9c2.01,0,3.72,1.03,4.7,2.65.09.14-.01.3-.18.3H3.9c-.4,0-.88-.29-.88-.69ZM4.49,2.43h0c-.54,0-.97.47-.97,1.06h0c0,.59.43,1.06.97,1.06h0c.54,0,.97-.47.97-1.06h0c0-.59-.43-1.06-.97-1.06Z"/>
  </g>
</svg>