<?xml version="1.0" encoding="UTF-8"?>
<svg id="Layer_1" data-name="Layer 1" xmlns="http://www.w3.org/2000/svg" xmlns:xlink="http://www.w3.org/1999/xlink" viewBox="0 0 1024 1024">
  <defs>
    <style>
      .cls-1 {
        fill: url(#linear-gradient-2);
      }

      .cls-2 {
        fill: url(#linear-gradient-3);
      }

      .cls-3 {
        fill: #221608;
      }

      .cls-4 {
        fill: url(#linear-gradient);
      }
    </style>
    <linearGradient id="linear-gradient" x1="987.94" y1="1223.81" x2="128.44" y2="405.45" gradientUnits="userSpaceOnUse">
      <stop offset="0" stop-color="#591a1a"/>
      <stop offset="1" stop-color="#ed5633"/>
    </linearGradient>
    <linearGradient id="linear-gradient-2" x1="1124.56" y1="1081.63" x2="265.06" y2="263.26" xlink:href="#linear-gradient"/>
    <linearGradient id="linear-gradient-3" x1="1216.38" y1="989.62" x2="356.88" y2="171.26" xlink:href="#linear-gradient"/>
  </defs>
  <rect class="cls-3" width="1024" height="1024" rx="204.53" ry="204.53"/>
  <g>
    <path class="cls-4" d="M202.3,724.67v92.88c0,23.45,20.49,42.46,45.77,42.46h249.67c128.89,0,241.81-63.49,304.38-158.58,5.54-8.42-1.1-19.21-11.73-19.21H248.08c-25.28,0-45.77,19.01-45.77,42.46ZM304.73,825.51h0c-30.04,0-54.39-24.35-54.39-54.39v-.02c0-30.04,24.35-54.39,54.39-54.39h0c30.04,0,54.39,24.35,54.39,54.39v.02c0,30.04-24.35,54.39-54.39,54.39Z"/>
    <path class="cls-1" d="M804.29,422H248.08c-25.28,0-45.77,19.23-45.77,42.94v93.92c0,23.72,20.49,42.94,45.77,42.94h556.22c22.43,0,41.6-15.24,45.19-36.02,3.03-17.54,4.6-35.54,4.6-53.89s-1.57-36.34-4.6-53.89c-3.59-20.77-22.76-36.02-45.19-36.02ZM304.73,566.3h0c-30.04,0-54.39-24.35-54.39-54.39h0c0-30.04,24.35-54.39,54.39-54.39h0c30.04,0,54.39,24.35,54.39,54.39h0c0,30.04-24.35,54.39-54.39,54.39Z"/>
    <path class="cls-2" d="M202.3,295.33v-92.88c0-23.45,20.49-42.46,45.77-42.46h249.67c128.89,0,241.81,63.49,304.38,158.58,5.54,8.42-1.1,19.21-11.73,19.21H248.08c-25.28,0-45.77-19.01-45.77-42.46ZM304.73,194.49h0c-30.04,0-54.39,24.35-54.39,54.39v.02c0,30.04,24.35,54.39,54.39,54.39h0c30.04,0,54.39-24.35,54.39-54.39v-.02c0-30.04-24.35-54.39-54.39-54.39Z"/>
  </g>
</svg>